<?xml version="1.0" encoding="UTF-8"?>
<!DOCTYPE svg PUBLIC "-//W3C//DTD SVG 1.1//EN" "http://www.w3.org/Graphics/SVG/1.1/DTD/svg11.dtd">
<svg version="1.1" xmlns="http://www.w3.org/2000/svg" xmlns:xlink="http://www.w3.org/1999/xlink" x="0" y="0" width="200" height="200" viewBox="0, 0, 200, 200">
  <g id="Layer_1">
    <path d="M207.136,183.636 C207.136,183.636 196.682,175 192.136,172.045 C187.591,169.091 185.318,168.864 185.318,168.864 C185.318,168.864 183.99,168.367 185.697,167.918 C187.404,167.469 187.854,168.278 189.112,167.199 C190.37,166.121 189.202,164.054 189.202,164.054 C189.202,164.054 187.674,162.526 183.271,160.549 C178.867,158.572 177.429,156.954 172.936,156.325 C168.442,155.696 153.974,146.17 153.974,146.17 C153.974,146.17 147.863,139.7 149.3,136.015 C150.738,132.33 152.446,127.208 150.918,122.175 C149.39,117.143 147.952,112.559 147.952,112.559 C147.952,112.559 154.782,101.236 154.423,97.821 C154.063,94.406 157.029,89.733 154.782,83.622 C152.536,77.511 145.886,72.209 145.886,72.209 C145.886,72.209 147.413,59.178 147.683,49.113 C147.952,39.047 152.176,43.451 147.323,26.736 C142.471,10.02 138.337,10.739 138.337,10.739 C138.337,10.739 133.304,10.2 133.304,10.2 C133.304,10.2 125.126,3.729 116.049,2.921 C106.973,2.112 90.257,2.022 83.427,4.987 C76.597,7.953 73.542,5.617 65.723,11.368 C57.905,17.12 54.759,35.273 54.759,35.273 C54.759,35.273 54.22,40.665 54.22,40.665 C54.22,40.665 53.142,42.642 53.681,45.338 C54.22,48.034 54.58,60.795 56.287,64.75 C57.995,68.704 58.624,72.478 57.006,74.276 C55.388,76.073 51.794,82.274 49.637,87.666 C47.48,93.058 46.941,102.404 46.941,102.404 C46.941,102.404 46.671,109.953 48.558,113.189 C50.446,116.424 53.501,123.164 55.658,124.602 C57.815,126.04 58.264,125.86 58.264,125.86 C58.264,125.86 54.13,131.701 52.333,133.229 C50.536,134.757 43.975,137.992 42.268,139.25 C40.56,140.508 36.606,143.564 35.618,145.361 C34.629,147.159 35.258,147.069 29.057,150.574 C22.856,154.078 20.34,154.797 20.34,154.797 C20.34,154.797 18.632,156.505 10.904,157.673 C3.175,158.841 2.277,157.763 2.277,157.763 C2.277,157.763 1.018,157.493 -0.599,161.088 C-2.217,164.683 -3.855,209.579 -3.855,209.579 C-3.855,209.579 214.691,212.593 215.067,211.839 C215.444,211.086 207.136,183.636 207.136,183.636 z M75.076,69.471 C75.076,69.471 75.076,68.793 75.269,67.34 C75.463,65.887 79.919,63.853 83.115,62.69 C86.312,61.528 91.445,62.303 91.445,62.303 C91.445,62.303 94.545,64.434 96.966,68.308 C99.388,72.183 92.511,71.311 92.511,71.311 C92.511,71.311 93.286,71.021 84.568,71.602 C75.85,72.183 75.076,69.471 75.076,69.471 z M112.638,69.471 C112.638,69.471 112.638,68.793 112.832,67.34 C113.026,65.887 117.482,63.853 120.678,62.69 C123.874,61.528 129.008,62.303 129.008,62.303 C129.008,62.303 132.108,64.434 134.529,68.308 C136.951,72.183 130.074,71.311 130.074,71.311 C130.074,71.311 130.849,71.021 122.131,71.602 C113.413,72.183 112.638,69.471 112.638,69.471 z"/>
  </g>
</svg>
