<?xml version="1.0" encoding="UTF-8"?>
<!DOCTYPE svg PUBLIC "-//W3C//DTD SVG 1.1//EN" "http://www.w3.org/Graphics/SVG/1.1/DTD/svg11.dtd">
<svg version="1.1" xmlns="http://www.w3.org/2000/svg" xmlns:xlink="http://www.w3.org/1999/xlink" x="0" y="0" width="200" height="200" viewBox="0, 0, 200, 200">
  <g id="Layer_1">
    <path d="M147.438,139.424 L137.295,124.866 C137.295,124.866 148.098,106.411 147.647,89.306 C147.197,72.201 147.872,78.278 147.872,78.278 C147.872,78.278 153.949,58.248 149.898,44.969 C145.847,31.69 148.548,28.539 132.343,12.785 C116.139,-2.969 66.4,2.207 66.175,33.266 C65.95,64.324 70.676,72.877 70.676,72.877 C70.676,72.877 68.65,74.227 72.477,86.155 C76.303,98.084 83.178,98.868 83.178,98.868 C83.178,98.868 83.56,103.334 83.56,103.334 C83.56,103.334 73.481,118.517 71.439,120.048 C69.398,121.58 64.784,119.984 64.784,119.984 C64.784,119.984 63.163,116.257 57.816,116.905 C52.469,117.553 59.761,121.118 38.697,121.442 C26.383,125.169 11.962,123.711 11.962,123.711 C11.962,123.711 -4.727,131.974 -8.13,136.673 C-11.532,141.372 -13.688,134.567 -21.927,153.524 C-30.166,172.482 -21.927,260.999 -21.927,260.999 C-21.927,260.999 257.157,264.905 257.157,264.905 C257.157,264.905 245.828,166.478 245.828,166.478 C245.828,166.478 246.374,169.088 231.956,161.133 C217.538,153.179 222.013,161.133 203.452,154.339 C184.891,147.544 186.383,150.361 186.383,150.361 C186.383,150.361 187.046,146.715 184.394,144.893 C181.742,143.07 181.079,140.584 176.274,145.887 C171.468,151.19 170.308,149.201 170.308,149.201 L163.513,151.356 C163.513,151.356 147.106,139.258 147.438,139.424 z"/>
  </g>
</svg>
