<?xml version="1.0" encoding="UTF-8"?>
<!DOCTYPE svg PUBLIC "-//W3C//DTD SVG 1.1//EN" "http://www.w3.org/Graphics/SVG/1.1/DTD/svg11.dtd">
<svg version="1.1" xmlns="http://www.w3.org/2000/svg" xmlns:xlink="http://www.w3.org/1999/xlink" x="0" y="0" width="200" height="200" viewBox="0, 0, 200, 200">
  <g id="Layer_1">
    <path d="M201.677,185.72 C201.677,185.503 197.331,163.553 192.333,159.424 C187.334,155.295 157.345,140.083 148.652,138.562 C153.286,131.354 149.734,124.148 149.734,124.148 C150.313,96.278 145.136,84.879 145.136,84.879 C145.136,84.879 145.633,68.476 144.515,62.759 C143.396,57.043 137.68,46.853 137.68,46.853 C137.68,46.853 130.969,38.776 130.969,38.776 C130.969,38.776 130.1,29.953 127.366,23.864 C124.632,17.775 119.413,15.911 119.413,15.911 C119.413,15.911 113.945,14.047 102.636,15.289 C91.328,16.532 94.311,14.544 87.6,15.786 C80.89,17.029 71.694,25.479 68.836,27.965 C65.978,30.45 63.492,37.533 63.741,43.125 C63.989,48.717 56.285,56.173 53.799,57.913 C51.314,59.653 51.687,59.653 46.592,64.499 C41.497,69.346 42.491,72.204 42.491,72.204 C42.491,72.204 42.988,80.033 42.988,80.033 C41.621,87.737 43.858,88.856 43.858,88.856 C43.858,88.856 44.603,89.477 43.858,90.595 C42.149,96.403 45.598,99.418 44.603,100.413 C43.609,101.407 41.372,103.519 41.994,106.005 C42.615,108.49 41.621,110.727 41.621,110.727 C41.621,110.727 39.16,114.198 41.646,119.169 C44.131,124.14 38.763,122.284 49.201,131.479 C59.64,140.675 52.308,142.788 52.308,142.912 C52.308,143.036 45.349,149.374 28.2,155.09 C11.051,160.807 13.039,171.866 12.915,171.866 C12.791,171.866 9.933,185.634 2.974,200 C-3.985,214.366 174.297,216.783 174.767,216.783 C175.238,216.783 211.488,193.244 211.488,193.244 L201.677,185.72 z"/>
  </g>
</svg>
